<svg fill="#FFFFFF" xmlns="http://www.w3.org/2000/svg" xmlns:xlink="http://www.w3.org/1999/xlink" viewBox="0 0 64 64" version="1.1" x="0px" y="0px"><title>Twitter</title><desc>Created with Sketch.</desc><g stroke="none" stroke-width="1" fill="none" fill-rule="evenodd"><path d="M22.041,44.2506056 C22.041,44.2506056 23.916,45.0006056 27.313,45.0006056 C38.26,45.0006056 47.165,36.0946056 47.165,25.1486056 L47.194,24.7666056 C47.208,24.6776056 47.214,24.5886056 47.221,24.4996056 L47.294,23.6646056 L48.765,21.6696056 L46.846,21.4546056 L46.198,20.5246056 C45.266,19.1866056 43.869,18.3136056 42.268,18.0686056 C39.054,17.5796056 36.013,19.7836056 35.564,22.9966056 C35,27.0426056 36.943,29.1586056 36.943,29.1586056 C36.943,29.1586056 27.083,30.0836056 18.727,23.5486056 C17.291,37.3756056 32.977,40.5676056 32.977,40.5676056 C32.977,40.5676056 28.208,43.0946056 22.041,44.2506056 M27.313,50.0006056 C15.625,50.0006056 7,41.2886056 7,41.2886056 C7,41.2886056 14.991,41.5836056 20.747,40.1066056 C16.311,36.5166056 13.638,31.0806056 13.638,25.1486056 C13.638,19.8336056 16.615,14.0846056 16.615,14.0846056 C16.615,14.0846056 21.041,21.4176056 30.498,23.6696056 C30.508,23.1946056 30.549,22.7186056 30.621,22.2416056 C31.528,16.3106056 37.091,12.2166056 43.021,13.1266056 C45.599,13.5196056 47.885,14.7856056 49.571,16.7296056 L57.929,17.6676056 L52.163,25.4866056 C51.981,39.0346056 40.903,50.0006056 27.313,50.0006056" fill="#FFFFFF"></path></g></svg>